<?xml version="1.0" encoding="UTF-8"?>
<svg id="Capa_2" data-name="Capa 2" xmlns="http://www.w3.org/2000/svg" viewBox="0 0 509.62 669.28">
  <defs>
    <style>
      .cls-1 {
        fill: #ab0932;
      }

      .cls-1, .cls-2 {
        stroke-width: 0px;
      }
    </style>
  </defs>
  <path class="cls-1" d="m118.13,138.38l25.53-28.6,2.04,12.77,7.15-4.09v8.17l8.68.51-.51,8.68,9.7,1.02-11.23,11.23,13.28,19.4-9.19,9.19,37.79,74.55-.51,14.3h6.64l9.19-22.47,22.47,18.38,21.45-10.72,1.53,21.45,3.06-.51.51-9.7,68.43,7.15v14.81l4.09-.51,11.23-28.09,24-13.79s9.7-30.64,21.45-36.77v-18.89l13.79,13.28,14.81-2.55-3.06,11.74,14.3,1.02-9.7,13.79,8.68,4.09.51,4.6s-32.68-.51-37.79,11.74l-37.79,60.77-63.83,3.57-17.87,10.72-.51,27.57-4.6,6.64,54.13-27.06,28.6,30.13,63.83,13.28.51,13.28h-4.6l-2.55-7.66h-8.17l.51,8.68h-6.64l-3.06-8.17-4.09.51-.51,7.15h-7.15l-.51-6.64h-3.57v8.17l-52.6-.51-1.53-13.28,6.64-2.55-3.06-4.09-41.36,31.15-31.66.51-6.64-15.83h-7.15l-8.68,14.3-35.74,1.53-18.38-11.23-3.57,6.13,21.62,27.74-34.04,36.43,1.02,34.38h-11.23v-5.79h-5.79v5.11l-6.13-.34v-4.77l-7.83.68-.34,5.45-7.83-.68v-4.43l-5.45-.68-1.36,5.11-9.19-.68s7.15-19.74,15.32-21.11l11.91-.68,11.57-48.68-33.7-32,13.62-22.47,68.77-1.36-.34-4.09-10.55-2.38-.68-54.47,12.26-.68-.17-3.06-39.32-20.43-6.64-34.21-11.74-12.77v-50.55l-20.43-40.85Z"/>
  <path class="cls-1" d="m238.98,395.57s9.19-10.21,12.26,3.4l-8.51,20.43,37.11-.68-5.45,28.6,20.43,6.47-37.45,10.55,8.85-33.7-41.53,1.36,14.3-36.43Z"/>
  <polygon class="cls-1" points="474.81 365.87 470.72 372.77 464.34 373.79 469.7 379.91 465.36 387.32 473.02 382.98 479.66 388.09 479.66 381.96 485.79 375.06 479.15 374.04 474.81 365.87"/>
  <polygon class="cls-1" points="211.74 0 204.94 18.04 184.85 17.36 199.49 27.57 195.06 48.68 210.72 36.09 224.34 48 220.6 30.64 234.55 18.72 216.85 17.7 211.74 0"/>
  <path class="cls-1" d="m223.96,241.02c3.87-1.62,7.74-3.23,11.62-4.85.88-.37,1.71-.83,2.55-1.28,1.77-.94,2.23-1.31,3.06-1.28.63.02.95.26,2.3,1.02.77.43,1.89,1.06,3.32,1.79,3.15,1.62,6.3,3.23,9.45,4.85-4.85,4.23-9.7,8.45-14.55,12.68-5.91-4.31-11.83-8.62-17.74-12.94Z"/>
  <path class="cls-1" d="m265.19,187.57h-8.17s-10.89-7.49-15.66-7.49-11.23,6.13-11.23,6.13h-11.23l-10.89-18.72-9.87,29.62,10.89,12.94-.68,17.7s6.13,16.68,18.04,10.89c11.08-2.86,14.05-5.88,14.3-8.34.25-2.51-2.04-7.32-2.04-7.32h6.13c-.85,2.52-1.7,5.05-2.55,7.57,6.21,7.03,14.15,10.3,19.57,8.09,3.02-1.23,5.21-3.78,5.21-3.78,3.76-3.99,4.32-8.48,4.32-8.48l2.38-21.11,6.81-8.17v-25.87l-15.32,16.34Zm-62.3,5.79l4.09-11.23,4.77,10.55-8.85.68Zm22.13,17.36l-.17-2.64-2.55-.09-.09-2.64h8.68l.09,5.28-5.96.09Zm21.53-21.96l-2.55-.09-.09,5.7-5.11-.09.09-5.02h-2.81v-2.72l-.09-.68,10.72-.09-.17,2.98Zm11.15,21.96l-.09,2.72-8-.26v-5.19l10.47-.09.43,2.64-2.81.17Zm18.04-14.64l-5.45-.68,5.45-11.91v12.6Z"/>
  <g>
    <polygon class="cls-2" points="0 566.13 7.83 566.13 7.83 668.26 15.32 668.26 15.32 566.13 24.17 566.13 24.17 552.17 0 552.17 0 566.13"/>
    <polygon class="cls-2" points="36.34 551.83 32 551.83 32 668.6 40.17 668.6 40.17 668.43 50.81 668.43 50.81 654.47 40.17 654.47 40.17 617.19 47.66 617.19 47.66 603.23 40.17 603.23 40.17 565.79 50.98 565.79 50.98 551.83 40.17 551.83 36.34 551.83"/>
    <polygon class="cls-2" points="165.62 551.23 161.28 551.23 161.28 668 165.45 668 165.45 668.04 180.09 668.04 180.09 654.09 169.45 654.09 169.45 616.6 176.94 616.6 176.94 602.64 169.45 602.64 169.45 565.19 180.26 565.19 180.26 551.23 169.45 551.23 165.62 551.23"/>
    <polygon class="cls-2" points="258.55 552 254.21 552 254.21 668.77 258.38 668.77 258.38 668.81 273.02 668.81 273.02 654.85 262.38 654.85 262.38 617.36 269.87 617.36 269.87 603.4 262.38 603.4 262.38 565.96 273.19 565.96 273.19 552 262.38 552 258.55 552"/>
    <path class="cls-2" d="m85.7,567.57s-1.28-16.6-11.49-16.09c-10.21.51-9.7,16.6-9.7,16.6l.24,32.94h-.07v6.47h.51v60.68h7.49v-60.68h5.83v60.64h7.45v-60.64h.51v-6.47h-.03l-.73-33.45Zm-13.28,1.53s3.83-3.06,5.87.26l-.48,31.66h-5.14l-.25-31.91Z"/>
    <rect class="cls-2" x="94.55" y="552.26" width="24.17" height="13.96"/>
    <rect class="cls-2" x="102.89" y="566.47" width="7.49" height="101.83"/>
    <rect class="cls-2" x="141.87" y="616.68" width="8.26" height="51.49"/>
    <path class="cls-2" d="m131.4,551.74l.42.77h-1.95v115.79h8v-51.75l.43.05h3.57l8.94-.26-4.85-7.15,5.36-9.96v-30.89c1.02-6.64-5.87-16.6-5.87-16.6h-14.04Zm11.74,49.28l-3.57,3.83-1.7-.1v-41.27l.43.77,5.36,4.34-.51,32.43Z"/>
    <rect class="cls-2" x="351.23" y="616.68" width="8.26" height="51.49"/>
    <path class="cls-2" d="m340.77,551.74l.42.77h-1.95v115.79h8v-51.75l.43.05h3.57l8.94-.26-4.85-7.15,5.36-9.96v-30.89c1.02-6.64-5.87-16.6-5.87-16.6h-14.04Zm11.74,49.28l-3.57,3.83-1.7-.1v-41.27l.43.77,5.36,4.34-.51,32.43Z"/>
    <path class="cls-2" d="m397.19,568.6s-1.28-16.6-11.49-16.09c-10.21.51-9.7,16.6-9.7,16.6l.24,32.94h-.07v6.47h.51v60.68h7.49v-60.68h5.83v60.64h7.45v-60.64h.51v-6.47h-.03l-.73-33.45Zm-13.28,1.53s3.83-3.06,5.87.26l-.48,31.66h-5.14l-.25-31.91Z"/>
    <path class="cls-2" d="m471.74,568.6s-1.28-16.6-11.49-16.09c-10.21.51-9.7,16.6-9.7,16.6l.24,32.94h-.07v6.47h.51v60.68h7.49v-60.68h5.83v60.64h7.45v-60.64h.51v-6.47h-.03l-.73-33.45Zm-13.28,1.53s3.83-3.06,5.87.26l-.48,31.66h-5.14l-.25-31.91Z"/>
    <path class="cls-2" d="m237.45,558.56c-3.36-4-7.15-6.07-9.36-7.07h0s0,0,0,0h-9.53v117.11h8.08v.34h11.24c.81-1.68,1.6-3.56,2.3-5.63,1.73-5.13,2.37-9.81,2.55-13.56-.26-27.81-.51-55.61-.77-83.42-.75-2.01-2.08-4.88-4.51-7.77Zm-4.43,15.19v79.58s-.41,4.95-4.94,1.88v-87.46c2.28-.03,5.26.88,4.94,6.01Z"/>
    <polygon class="cls-2" points="296.51 551.15 285.96 551.15 285.96 669.28 296.51 669.28 296.51 668.94 306.38 668.94 306.38 654.98 296.51 654.98 296.51 551.15"/>
    <polygon class="cls-2" points="509.62 654.98 499.74 654.98 499.74 551.15 489.19 551.15 489.19 669.28 499.74 669.28 499.74 668.94 509.62 668.94 509.62 654.98"/>
    <path class="cls-2" d="m427.91,642.74h-.34s1.52,12.93-5.11,14.9v-106.15h-8.17v117.79h8.17v-.69c1.81-.36,4.81-1.22,7.78-3.52,4.4-3.41,5.95-7.84,6.43-9.49.14-4.17.28-8.34.43-12.51v-91.91h-9.19v91.59Z"/>
  </g>
</svg>