<?xml version="1.0" encoding="UTF-8"?>
<svg xmlns="http://www.w3.org/2000/svg" viewBox="0 0 2640 1505.35">
  <defs>
    <style>
      .cls-1 {
        fill: none;
      }

      .cls-1, .cls-2 {
        stroke: #000;
        stroke-miterlimit: 10;
        stroke-width: 4px;
      }

      .cls-3, .cls-4, .cls-5, .cls-6, .cls-7, .cls-8 {
        fill: #ab0932;
      }

      .cls-4, .cls-9, .cls-10, .cls-11 {
        stroke-width: 0px;
      }

      .cls-12 {
        letter-spacing: 0em;
      }

      .cls-12, .cls-13, .cls-14, .cls-10 {
        fill: #e5dcd3;
      }

      .cls-15 {
        letter-spacing: -.07em;
      }

      .cls-16 {
        letter-spacing: 0em;
      }

      .cls-5 {
        letter-spacing: -.08em;
      }

      .cls-17 {
        font-size: 12px;
      }

      .cls-17, .cls-18 {
        font-family: Beckan-PersonalUseOnly, 'Beckan Personal Use Only';
      }

      .cls-2 {
        fill: #3c3c3a;
      }

      .cls-13 {
        letter-spacing: 0em;
      }

      .cls-9 {
        fill: #9b9b9a;
      }

      .cls-6 {
        letter-spacing: -.06em;
      }

      .cls-14 {
        letter-spacing: -.07em;
      }

      .cls-11 {
        fill: #010300;
      }

      .cls-19 {
        letter-spacing: -.01em;
      }

      .cls-18 {
        font-size: 157.5px;
      }

      .cls-7 {
        letter-spacing: -.03em;
      }

      .cls-8 {
        letter-spacing: 0em;
      }
    </style>
  </defs>
  <g id="Capa_2" data-name="Capa 2">
    <rect class="cls-9" x="1178.04" y="956.92" width="1461.96" height="548.43"/>
  </g>
  <g id="Capa_1" data-name="Capa 1">
    <rect class="cls-11" x="1211.83" y="957.28" width="1370.98" height="133"/>
    <path class="cls-4" d="m1893.41,1277.51c.46-.16.92-.32,1.38-.48.1-.04.2-.08.3-.13.21-.09.26-.13.36-.13.07,0,.11.03.27.1.09.04.22.1.39.18.37.16.75.32,1.12.48-.58.42-1.15.83-1.73,1.25-.7-.43-1.4-.85-2.1-1.28Z"/>
    <rect class="cls-2" x="1213.87" y="1088.33" width="1367" height="232.5"/>
    <line class="cls-1" x1="1212.69" y1="1171.66" x2="1417.02" y2="973.77"/>
    <line class="cls-1" x1="1212.18" y1="1269.19" x2="1416.51" y2="1071.31"/>
    <line class="cls-1" x1="1241.87" y1="1319.48" x2="1471.15" y2="1083.05"/>
    <line class="cls-1" x1="1354.54" y1="1319.83" x2="1554.57" y2="1058.19"/>
    <line class="cls-1" x1="1443.38" y1="1319.88" x2="1629.13" y2="1047.92"/>
    <line class="cls-1" x1="1570.4" y1="1320.35" x2="1698.19" y2="1016.81"/>
    <line class="cls-1" x1="1705.14" y1="1318.36" x2="1732.99" y2="990.2"/>
    <line class="cls-1" x1="1833.77" y1="1316.28" x2="1755.51" y2="996.37"/>
    <line class="cls-1" x1="1970.22" y1="1320.42" x2="1798.8" y2="1039.21"/>
    <line class="cls-1" x1="2088.77" y1="1320.75" x2="1888.78" y2="1059.08"/>
    <line class="cls-1" x1="2196" y1="1321.52" x2="1996.02" y2="1059.85"/>
    <line class="cls-1" x1="2300.08" y1="1322.14" x2="2100.09" y2="1060.47"/>
    <line class="cls-1" x1="2389.02" y1="1321.52" x2="2189.04" y2="1059.85"/>
    <line class="cls-1" x1="2490.03" y1="1320.35" x2="2290.05" y2="1058.68"/>
    <line class="cls-1" x1="2577.86" y1="1320.35" x2="2377.88" y2="1058.68"/>
    <line class="cls-1" x1="2579.91" y1="1220.27" x2="2379.92" y2="958.6"/>
    <path class="cls-10" d="m2285.62,961.92c-.53,0-1.01-.07-1.45-.19l-288.79,267.75c-1.96,1.41-3.6,2.91-4.88,4.52l-5.73,5.32,2.84.43c-.1.4-.21.79-.27,1.19-3.11,20.68,43.51,44.82,104.12,53.94,60.61,9.11,112.26-.26,115.37-20.94.06-.41.07-.81.09-1.22h.09s200.7-315.72,200.7-315.72c-40.69.99-81.4,4.87-122.09,4.93Z"/>
    <text class="cls-18" transform="translate(1446.2 1462.4) scale(1.19 1)"><tspan class="cls-6" x="0" y="0">T</tspan><tspan class="cls-8" x="92.3" y="0">ea</tspan><tspan class="cls-3" x="238.61" y="0">t</tspan><tspan class="cls-14" x="283.66" y="0">r</tspan><tspan class="cls-13" x="334.53" y="0">o </tspan><tspan class="cls-12" x="457.7" y="0">R</tspan><tspan class="cls-7" x="556.13" y="0">a</tspan><tspan class="cls-5" x="630.79" y="0">v</tspan><tspan class="cls-3" x="698.36" y="0">al</tspan></text>
    <path class="cls-10" d="m2127.06,1422.63l-15.06,24.85s-6.3-20.43,15.06-24.85Z"/>
    <path class="cls-10" d="m2133.11,1409.69l14.3-25.53s-28.6,4.43-26.21,33.36l11.91-7.83Z"/>
    <path class="cls-10" d="m1736.51,1433.52l33.7-25.87v16s0,8.85-13.62,16c0,0-15.32,9.19-10.89,14.3,0,0,18.38,6.13,24.85-13.96l8.85,19.74s-29.62,8.85-41.19-10.55c0,0-2.72-11.57-1.7-15.66Z"/>
    <text class="cls-17" transform="translate(0 10.2)"><tspan class="cls-19" x="0" y="0">L</tspan><tspan class="cls-16" x="6.64" y="0">o</tspan><tspan class="cls-15" x="13.02" y="0">r</tspan><tspan x="16.9" y="0">em i</tspan><tspan class="cls-19" x="37.73" y="0">p</tspan><tspan x="44.15" y="0">sum</tspan></text>
  </g>
</svg>